<svg xmlns="http://www.w3.org/2000/svg" viewBox="0 0 520 16" width="520" height="16"><rect width="520" height="16" fill="#1a1916"/><g fill="#0f0e0c"><circle cx="13" cy="8" r="4"/><circle cx="39" cy="8" r="4"/><circle cx="65" cy="8" r="4"/><circle cx="91" cy="8" r="4"/><circle cx="117" cy="8" r="4"/><circle cx="143" cy="8" r="4"/><circle cx="169" cy="8" r="4"/><circle cx="195" cy="8" r="4"/><circle cx="221" cy="8" r="4"/><circle cx="247" cy="8" r="4"/><circle cx="273" cy="8" r="4"/><circle cx="299" cy="8" r="4"/><circle cx="325" cy="8" r="4"/><circle cx="351" cy="8" r="4"/><circle cx="377" cy="8" r="4"/><circle cx="403" cy="8" r="4"/><circle cx="429" cy="8" r="4"/><circle cx="455" cy="8" r="4"/><circle cx="481" cy="8" r="4"/><circle cx="507" cy="8" r="4"/></g></svg>